<svg width="76" height="76" viewBox="0 0 76 76" fill="none" xmlns="http://www.w3.org/2000/svg">
<path d="M27.5015 17.1552C27.1875 16.8937 26.8251 16.6966 26.4349 16.5753C26.0447 16.454 25.6344 16.4108 25.2275 16.4484C24.8206 16.4859 24.4251 16.6033 24.0637 16.7939C23.7022 16.9845 23.3819 17.2445 23.1211 17.5591L7.58798 36.1989C7.13105 36.7547 6.88126 37.452 6.88126 38.1716C6.88126 38.8911 7.13105 39.5884 7.58798 40.1443L22.593 58.784C22.8854 59.1445 23.2548 59.4348 23.6741 59.6337C24.0935 59.8326 24.552 59.9351 25.0162 59.9335C25.604 59.9355 26.1804 59.7707 26.6783 59.4581C27.1763 59.1456 27.5753 58.6982 27.8291 58.1679C28.0828 57.6376 28.1809 57.0462 28.1119 56.4623C28.0429 55.8785 27.8097 55.3262 27.4393 54.8697L13.9876 38.1871L27.9053 21.5356C28.1669 21.2217 28.364 20.8592 28.4853 20.469C28.6066 20.0788 28.6497 19.6685 28.6122 19.2616C28.5747 18.8547 28.4573 18.4592 28.2667 18.0978C28.0761 17.7363 27.816 17.416 27.5015 17.1552Z" fill="#1A9AFB"/>
<path d="M68.3229 36.2301L53.4732 17.5904C53.2169 17.2712 52.9 17.0059 52.5407 16.8096C52.1815 16.6134 51.787 16.4901 51.3799 16.4468C50.9729 16.4034 50.5613 16.441 50.1688 16.5573C49.7763 16.6736 49.4107 16.8663 49.0929 17.1244C48.7738 17.3807 48.5084 17.6976 48.3122 18.0569C48.1159 18.4161 47.9926 18.8106 47.9493 19.2177C47.906 19.6247 47.9436 20.0363 48.0599 20.4288C48.1761 20.8213 48.3688 21.1869 48.6269 21.5047L61.8922 38.1873L47.9745 54.8699C47.7129 55.1838 47.5158 55.5463 47.3945 55.9365C47.2732 56.3267 47.2301 56.737 47.2676 57.1439C47.3052 57.5507 47.4226 57.9462 47.6132 58.3077C47.8038 58.6691 48.0638 58.9894 48.3784 59.2502C48.9415 59.7022 49.6446 59.9439 50.3666 59.9337C50.823 59.9344 51.274 59.8346 51.6874 59.6413C52.1008 59.448 52.4666 59.166 52.7587 58.8153L68.2919 40.1755C68.7532 39.6233 69.0085 38.928 69.0141 38.2084C69.0198 37.4888 68.7755 36.7896 68.3229 36.2301Z" fill="#1A9AFB"/>
</svg>
