<svg width="209" height="85" viewBox="0 0 209 85" fill="none" xmlns="http://www.w3.org/2000/svg">
<path d="M104.222 8.94368H108.23V13.8235H104.222V28.1782C104.222 29.4396 104.512 30.3875 105.088 31.0182C105.663 31.6489 106.662 31.9661 108.085 31.9661C108.433 31.9661 108.816 31.948 109.236 31.9084C109.66 31.8687 109.986 31.8147 110.217 31.7354V36.3269C109.986 36.4026 109.544 36.5107 108.892 36.6441C108.237 36.7774 107.452 36.8459 106.528 36.8459C104.143 36.8459 102.26 36.1683 100.877 34.806C99.4944 33.4473 98.7993 31.5047 98.7993 28.9783V13.8199H93.4921V8.94008H94.9908C96.4896 8.94008 97.5757 8.53643 98.249 7.73274C98.9224 6.92904 99.2591 5.91632 99.2591 4.69096V0.211182H104.219V8.93647L104.222 8.94368Z" fill="white"/>
<path d="M132.25 14.3959C131.443 14.2805 130.654 14.2229 129.886 14.2229C127.616 14.2229 125.781 14.8824 124.38 16.2015C122.975 17.5205 122.276 19.6937 122.276 22.7175V36.5533H116.857V8.943H122.164V13.7652C122.664 12.6948 123.25 11.8226 123.924 11.1523C124.597 10.4819 125.299 9.94852 126.031 9.54487C126.762 9.14122 127.511 8.86732 128.279 8.71235C129.05 8.56098 129.778 8.48169 130.469 8.48169C130.853 8.48169 131.208 8.49971 131.537 8.53935C131.863 8.579 132.102 8.61504 132.257 8.65468V14.3959H132.25Z" fill="white"/>
<path d="M155.792 33.2268C155.025 34.6828 153.87 35.7424 152.332 36.4127C150.793 37.0831 149.218 37.4182 147.604 37.4182C145.989 37.4182 144.537 37.1299 143.248 36.5569C141.96 35.9838 140.874 35.1982 139.99 34.2035C139.103 33.2088 138.423 32.0411 137.941 30.7004C137.46 29.3597 137.221 27.9073 137.221 26.3359V14.5076H142.64V25.5322C142.64 26.4873 142.756 27.3991 142.988 28.2605C143.219 29.1218 143.581 29.8787 144.081 30.5274C144.581 31.1797 145.225 31.6951 146.014 32.0771C146.803 32.4591 147.774 32.6501 148.925 32.6501C151.115 32.6501 152.762 32.0014 153.856 30.6968C154.953 29.3957 155.499 27.691 155.499 25.5863V8.93579H160.919V31.4428C160.919 32.5528 160.919 36.5821 160.919 36.5533H155.774C155.774 36.5533 155.774 33.2196 155.785 33.2232" fill="white"/>
<path d="M133.296 58.8694C134.064 57.4134 135.219 56.3538 136.757 55.6835C138.296 55.0131 139.871 54.678 141.485 54.678C143.1 54.678 144.552 54.9663 145.841 55.5393C147.129 56.1124 148.215 56.898 149.099 57.8927C149.986 58.8875 150.666 60.0552 151.148 61.3958C151.629 62.7329 151.868 64.1889 151.868 65.7603V77.5886H146.449V66.564C146.449 65.6089 146.333 64.6971 146.101 63.8358C145.869 62.9744 145.507 62.2176 145.008 61.5688C144.508 60.9165 143.864 60.4011 143.075 60.0191C142.285 59.6371 141.315 59.4461 140.164 59.4461C137.974 59.4461 136.327 60.0948 135.233 61.3994C134.136 62.7005 133.59 64.4052 133.59 66.5099V83.1604H128.17V60.6534C128.17 59.5434 128.17 55.5141 128.17 55.5429H133.315C133.315 55.5429 133.315 58.8766 133.304 58.873" fill="white"/>
<path d="M172.105 27.6586C172.297 29.1146 172.931 30.3363 174.009 31.331C175.085 32.3257 176.605 32.8231 178.567 32.8231C180.106 32.8231 181.279 32.4591 182.086 31.7311C182.893 31.0031 183.299 30.1417 183.299 29.147C183.299 28.2676 182.991 27.5216 182.376 26.9089C181.76 26.2962 180.877 25.8566 179.722 25.5863L174.994 24.5519C172.804 24.0942 171.102 23.1752 169.89 21.7948C168.677 20.4181 168.072 18.7531 168.072 16.7997C168.072 15.614 168.333 14.4931 168.851 13.4408C169.368 12.3884 170.071 11.4586 170.958 10.6549C171.841 9.85118 172.891 9.22048 174.1 8.75916C175.309 8.30146 176.587 8.0708 177.934 8.0708C179.816 8.0708 181.402 8.3411 182.691 8.87449C183.98 9.41149 185.026 10.071 185.833 10.8567C186.64 11.6424 187.245 12.4533 187.65 13.2966C188.052 14.1399 188.331 14.868 188.487 15.477L183.701 17.2574C183.625 16.9114 183.491 16.4717 183.299 15.9383C183.107 15.4013 182.799 14.8968 182.376 14.4175C181.952 13.9381 181.377 13.5273 180.645 13.1849C179.914 12.8425 179.009 12.6695 177.934 12.6695C176.551 12.6695 175.436 13.0407 174.589 13.7868C173.742 14.5328 173.322 15.3833 173.322 16.342C173.322 18.1043 174.379 19.2108 176.493 19.6721L180.993 20.6488C183.531 21.1858 185.442 22.1697 186.731 23.6041C188.02 25.0385 188.664 26.79 188.664 28.8587C188.664 29.8534 188.454 30.8481 188.031 31.8428C187.607 32.8375 186.981 33.7565 186.155 34.5999C185.33 35.4432 184.28 36.1208 183.013 36.6361C181.746 37.1551 180.243 37.411 178.513 37.411C176.591 37.411 174.947 37.1407 173.582 36.6073C172.217 36.0703 171.081 35.4036 170.179 34.5963C169.274 33.7926 168.583 32.9204 168.101 31.9834C167.62 31.0463 167.323 30.1742 167.207 29.3705L172.109 27.6477L172.105 27.6586Z" fill="white"/>
<path d="M202.823 8.94368H206.83V13.8235H202.823V28.1782C202.823 29.4396 203.112 30.3875 203.688 31.0182C204.267 31.6489 205.266 31.9661 206.685 31.9661C207.033 31.9661 207.417 31.948 207.84 31.9084C208.264 31.8687 208.59 31.8147 208.821 31.7354V36.3269C208.59 36.4026 208.148 36.5107 207.493 36.6441C206.838 36.7774 206.052 36.8459 205.129 36.8459C202.743 36.8459 200.861 36.1683 199.478 34.806C198.095 33.4473 197.403 31.5047 197.403 28.9783V13.8199H192.096V8.94008H193.595C195.094 8.94008 196.18 8.53643 196.853 7.73274C197.526 6.92904 197.863 5.91632 197.863 4.69096V0.211182H202.823V8.93647V8.94368Z" fill="white"/>
<path d="M104.172 46.5183H98.7523V83.1566H104.172V46.5183Z" fill="white"/>
<path d="M112.201 50.1372C112.201 49.0272 112.578 48.0973 113.327 47.3513C114.077 46.6053 114.989 46.2305 116.068 46.2305C117.147 46.2305 118.117 46.6053 118.866 47.3513C119.616 48.0973 119.989 49.0272 119.989 50.1372C119.989 51.2472 119.616 52.1158 118.866 52.8654C118.117 53.6115 117.183 53.9863 116.068 53.9863C114.953 53.9863 114.077 53.6151 113.327 52.8654C112.578 52.1194 112.201 51.2112 112.201 50.1372ZM113.414 56.8046H118.776V83.1535H113.414V56.8046Z" fill="white"/>
<path d="M183.806 75.2893C183.422 76.5147 182.854 77.6536 182.104 78.7059C181.355 79.7583 180.45 80.6773 179.393 81.463C178.336 82.2487 177.134 82.8686 175.787 83.3299C174.44 83.7912 172.96 84.0182 171.345 84.0182C169.499 84.0182 167.732 83.6939 166.038 83.0415C164.347 82.3928 162.856 81.4342 161.57 80.1728C160.282 78.9114 159.264 77.358 158.515 75.5236C157.766 73.6856 157.389 71.6024 157.389 69.267C157.389 67.0866 157.755 65.1044 158.486 63.324C159.217 61.5437 160.187 60.012 161.397 58.7289C162.606 57.4459 164.021 56.4512 165.636 55.7448C167.251 55.0384 168.923 54.6816 170.654 54.6816C172.768 54.6816 174.661 55.0384 176.334 55.7448C178.006 56.4548 179.4 57.4387 180.515 58.7001C181.63 59.9615 182.484 61.486 183.082 63.2664C183.679 65.0468 183.976 67.0073 183.976 69.1517C183.976 69.4977 183.965 69.8221 183.947 70.1284C183.929 70.4347 183.9 70.6834 183.86 70.8744H162.982C163.018 72.0998 163.25 73.2278 163.674 74.2622C164.097 75.2965 164.684 76.1867 165.433 76.9328C166.183 77.6788 167.066 78.2518 168.087 78.6555C169.104 79.0555 170.194 79.2573 171.345 79.2573C173.615 79.2573 175.345 78.7204 176.536 77.65C177.727 76.5796 178.593 75.2569 179.132 73.6892L183.802 75.2965L183.806 75.2893ZM178.328 66.5064C178.252 64.517 177.579 62.8411 176.308 61.4824C175.041 60.1237 173.173 59.4461 170.715 59.4461C169.564 59.4461 168.532 59.6444 167.631 60.048C166.726 60.448 165.958 60.985 165.325 61.6554C164.691 62.3257 164.181 63.0826 163.797 63.9223C163.413 64.7656 163.199 65.6234 163.163 66.5064H178.332H178.328Z" fill="white"/>
<path d="M37.2846 82.346L16.7544 72.0602C6.41865 66.8813 0 56.5126 0 44.9942V13.1708C0 10.4894 2.18299 8.3126 4.88006 8.3126C7.57712 8.3126 9.76011 10.4858 9.76011 13.1708V44.9905C9.76011 52.8148 14.1225 59.8643 21.1457 63.3818L37.2919 71.4692L53.4561 63.3782C60.483 59.8607 64.8454 52.8112 64.8454 44.9833V5.98442C64.8454 3.30304 67.0283 1.12622 69.7254 1.12622C72.4225 1.12622 74.6055 3.29944 74.6055 5.98442V44.9869C74.6055 56.5089 68.1832 66.8813 57.8402 72.0602L37.2919 82.346H37.2846Z" fill="#D6D7D7"/>
<path d="M27.9812 44.6085L1.26758 15.3115C-0.542525 13.3257 -0.394097 10.2551 1.60064 8.44949C3.59538 6.64749 6.67981 6.79525 8.49354 8.78106L29.0202 31.2953L66.656 1.0757C68.7557 -0.607373 71.8256 -0.279407 73.5163 1.80731C75.2069 3.89403 74.8775 6.95383 72.7814 8.6369L27.9776 44.6085H27.9812Z" fill="white"/>
</svg>
