<svg width="57" height="56" viewBox="0 0 57 56" fill="none" xmlns="http://www.w3.org/2000/svg">
<path d="M39.2923 45.5077H17.4376C15.6144 45.5077 14.299 45.4384 13.1682 45.2769C5.16016 44.3999 3.56778 39.5998 3.56778 31.638V17.0528C3.56778 9.09092 5.13709 4.29066 13.2143 3.41371C14.3221 3.25216 15.6375 3.18298 17.4376 3.18298H39.2923C41.0923 3.18298 42.4077 3.25216 43.5616 3.41371C51.5927 4.29066 53.162 9.09092 53.162 17.0528V31.638C53.162 39.5998 51.5927 44.3999 43.5155 45.2769C42.4308 45.4384 41.1154 45.5077 39.2923 45.5077ZM17.4145 6.64465C15.7759 6.64465 14.599 6.71395 13.6297 6.85242C8.6449 7.40628 7.00639 8.95248 7.00639 17.0759V31.6611C7.00639 39.7614 8.64492 41.3306 13.5836 41.8614C14.599 41.9999 15.776 42.069 17.4376 42.069H39.2923C40.9539 42.069 42.1077 41.9999 43.077 41.8614C48.0618 41.3075 49.7003 39.7613 49.7003 31.638V17.0528C49.7003 8.95246 48.0618 7.38321 43.1231 6.85242C42.0846 6.71395 40.9308 6.64465 39.2691 6.64465H17.4145Z" fill="#1A9AFB"/>
<path d="M40.4899 21.2301H31.9973C31.0511 21.2301 30.2665 20.4455 30.2665 19.4993C30.2665 18.5531 31.0511 17.7684 31.9973 17.7684H40.4899C41.4361 17.7684 42.2208 18.5531 42.2208 19.4993C42.2208 20.4455 41.4592 21.2301 40.4899 21.2301Z" fill="#1A9AFB"/>
<path d="M23.7377 21.807C22.4684 21.807 21.4299 20.7685 21.4299 19.4992C21.4299 18.2299 22.4454 17.1914 23.7377 17.1914C25.007 17.1914 26.0455 18.2299 26.0455 19.4992C26.0455 20.7685 25.0301 21.807 23.7377 21.807Z" fill="#1A9AFB"/>
<path d="M16.4695 21.807C15.2003 21.807 14.1618 20.7685 14.1618 19.4992C14.1618 18.2299 15.1772 17.1914 16.4695 17.1914H16.4926C17.7619 17.1914 18.8004 18.2299 18.8004 19.4992C18.8004 20.7685 17.7388 21.807 16.4695 21.807Z" fill="#1A9AFB"/>
<path d="M40.4931 34.5916H16.2384C15.2922 34.5916 14.4845 33.8069 14.4845 32.8607C14.4845 31.9145 15.246 31.1299 16.1922 31.1299H40.4931C41.4393 31.1299 42.224 31.9145 42.224 32.8607C42.224 33.8069 41.4624 34.5916 40.4931 34.5916Z" fill="#1A9AFB"/>
<path d="M39.8933 52.8003H16.8155C15.8693 52.8003 15.0847 52.0156 15.0847 51.0695C15.0847 50.1233 15.8693 49.3386 16.8155 49.3386H39.8933C40.8395 49.3386 41.6241 50.1233 41.6241 51.0695C41.6241 52.0156 40.8395 52.8003 39.8933 52.8003Z" fill="#1A9AFB"/>
</svg>
