<svg width="53" height="53" viewBox="0 0 53 53" fill="none" xmlns="http://www.w3.org/2000/svg">
<path d="M39.9358 17.5423C39.8706 17.5423 39.8271 17.5423 39.7618 17.5423H39.6531C35.543 17.4118 32.4768 14.2368 32.4768 10.3225C32.4768 6.32115 35.7387 3.08093 39.7183 3.08093C43.6979 3.08093 46.9599 6.3429 46.9599 10.3225C46.9381 14.2586 43.8719 17.4336 39.9575 17.564C39.9575 17.5423 39.9575 17.5423 39.9358 17.5423ZM39.7183 6.32116C37.5219 6.32116 35.7387 8.10437 35.7387 10.3008C35.7387 12.4536 37.4132 14.1934 39.5661 14.2803C39.5879 14.2586 39.7618 14.2586 39.9575 14.2803C42.0669 14.1716 43.6979 12.4319 43.7197 10.3008C43.7197 8.10437 41.9365 6.32116 39.7183 6.32116Z" fill="#1A9AFB"/>
<path d="M39.9581 33.5696C39.11 33.5696 38.2619 33.5044 37.4138 33.3522C36.5222 33.1999 35.9351 32.3518 36.0873 31.4602C36.2395 30.5686 37.0876 29.9815 37.9792 30.1337C40.654 30.5904 43.4811 30.0902 45.373 28.8289C46.3951 28.1548 46.9387 27.3067 46.9387 26.4585C46.9387 25.6104 46.3733 24.7841 45.373 24.1099C43.4811 22.8486 40.6105 22.3485 37.914 22.8269C37.0224 23.0009 36.1743 22.392 36.022 21.5004C35.8698 20.6088 36.457 19.7607 37.3486 19.6084C40.8932 18.9778 44.5684 19.6519 47.178 21.3916C49.0916 22.6747 50.2007 24.5014 50.2007 26.4585C50.2007 28.394 49.1134 30.2424 47.178 31.5472C45.199 32.852 42.6329 33.5696 39.9581 33.5696Z" fill="#1A9AFB"/>
<path d="M13.7773 17.5424C13.7556 17.5424 13.7338 17.5424 13.7338 17.5424C9.8195 17.412 6.75325 14.237 6.73151 10.3226C6.73151 6.32128 9.99347 3.05933 13.9731 3.05933C17.9527 3.05933 21.2146 6.32129 21.2146 10.3009C21.2146 14.237 18.1484 17.412 14.234 17.5424L13.7773 15.9115L13.9296 17.5424C13.8861 17.5424 13.8208 17.5424 13.7773 17.5424ZM13.9948 14.2805C14.1253 14.2805 14.234 14.2805 14.3645 14.3022C16.2999 14.2152 17.9961 12.4755 17.9961 10.3226C17.9961 8.12623 16.2129 6.34302 14.0166 6.34302C11.8202 6.34302 10.037 8.12623 10.037 10.3226C10.037 12.4538 11.6897 14.1717 13.7991 14.3022C13.8208 14.2805 13.9078 14.2805 13.9948 14.2805Z" fill="#1A9AFB"/>
<path d="M13.7549 33.5696C11.0801 33.5696 8.51406 32.852 6.53514 31.5472C4.62145 30.2642 3.51239 28.4157 3.51239 26.4585C3.51239 24.5231 4.62145 22.6747 6.53514 21.3916C9.14471 19.6519 12.8198 18.9778 16.3645 19.6084C17.2561 19.7607 17.8433 20.6088 17.691 21.5004C17.5388 22.392 16.6907 23.0009 15.7991 22.8269C13.1026 22.3485 10.2538 22.8486 8.34009 24.1099C7.31801 24.7841 6.77435 25.6104 6.77435 26.4585C6.77435 27.3067 7.33976 28.1548 8.34009 28.8289C10.232 30.0902 13.0591 30.5904 15.7339 30.1337C16.6255 29.9815 17.4736 30.5904 17.6258 31.4602C17.778 32.3518 17.1909 33.1999 16.2993 33.3522C15.4512 33.5044 14.603 33.5696 13.7549 33.5696Z" fill="#1A9AFB"/>
<path d="M26.8908 33.7868C26.8255 33.7868 26.782 33.7868 26.7168 33.7868H26.6081C22.498 33.6563 19.4318 30.4813 19.4318 26.567C19.4318 22.5657 22.6937 19.3254 26.6733 19.3254C30.6529 19.3254 33.9149 22.5874 33.9149 26.567C33.8931 30.5031 30.8269 33.6781 26.9125 33.8085C26.9125 33.7868 26.9125 33.7868 26.8908 33.7868ZM26.6733 22.5657C24.4769 22.5657 22.6937 24.3489 22.6937 26.5453C22.6937 28.6982 24.3682 30.4379 26.5211 30.5249C26.5428 30.5031 26.7168 30.5031 26.9125 30.5249C29.0219 30.4161 30.6529 28.6764 30.6747 26.5453C30.6747 24.3706 28.8914 22.5657 26.6733 22.5657Z" fill="#1A9AFB"/>
<path d="M26.8895 49.8354C24.2799 49.8354 21.6703 49.1613 19.6479 47.7913C17.7342 46.5083 16.6252 44.6816 16.6252 42.7244C16.6252 40.7889 17.7125 38.9187 19.6479 37.6357C23.7145 34.9391 30.0862 34.9391 34.131 37.6357C36.0447 38.9187 37.1538 40.7454 37.1538 42.7026C37.1538 44.638 36.0665 46.5083 34.131 47.7913C32.1086 49.1396 29.4991 49.8354 26.8895 49.8354ZM21.4529 40.3758C20.4308 41.0499 19.8871 41.898 19.8871 42.7461C19.8871 43.5942 20.4526 44.4206 21.4529 45.0947C24.3886 47.0736 29.3686 47.0736 32.3043 45.0947C33.3264 44.4206 33.8701 43.5725 33.8701 42.7244C33.8701 41.8763 33.3047 41.0499 32.3043 40.3758C29.3903 38.3968 24.4104 38.4186 21.4529 40.3758Z" fill="#1A9AFB"/>
</svg>
