<svg width="74" height="74" viewBox="0 0 74 74" fill="none" xmlns="http://www.w3.org/2000/svg">
<path d="M36.7535 67.1433C35.6834 67.1601 34.6275 66.8961 33.6912 66.3778L32.7725 65.8572C25.6169 61.8088 19.6639 55.9338 15.5213 48.8323C11.3787 41.7307 9.19505 33.657 9.19324 25.4355V25.0068C9.18353 23.9224 9.46192 22.8549 9.99994 21.9134C10.538 20.9718 11.3163 20.19 12.2555 19.6479L33.6912 7.58261C34.6223 7.04508 35.6784 6.76208 36.7535 6.76208C37.8285 6.76208 38.8847 7.04508 39.8157 7.58261L61.2514 19.6479C62.1906 20.19 62.969 20.9718 63.507 21.9134C64.045 22.8549 64.3234 23.9224 64.3137 25.0068V25.4355C64.3058 33.6631 62.1128 41.7409 57.9592 48.843C53.8055 55.9451 47.8402 61.8166 40.6731 65.8572L39.7545 66.3778C38.8362 66.8858 37.8029 67.1495 36.7535 67.1433ZM36.7535 12.9415L15.3177 25.0068V25.4355C15.3229 32.5739 17.2255 39.5826 20.8307 45.7438C24.4359 51.9049 29.6141 56.9969 35.8348 60.4983L36.7535 61.0188L37.6721 60.4983C43.8929 56.9969 49.071 51.9049 52.6762 45.7438C56.2814 39.5826 58.184 32.5739 58.1892 25.4355V25.0068L36.7535 12.9415Z" fill="#1A9AFB"/>
</svg>
