<svg width="76" height="77" viewBox="0 0 76 77" fill="none" xmlns="http://www.w3.org/2000/svg">
<path d="M66.1092 22.9648C66.1387 22.7452 66.1387 22.5226 66.1092 22.3031C66.0821 22.1181 66.0296 21.9378 65.9534 21.7674C65.871 21.6134 65.7772 21.4659 65.6728 21.3263C65.5541 21.127 65.4071 20.9465 65.2363 20.7906L64.8622 20.57C64.6822 20.4344 64.4823 20.3281 64.2698 20.2549H63.6463C63.4563 20.069 63.2344 19.9195 62.9916 19.8138H47.4032C46.5764 19.8138 45.7834 20.1458 45.1987 20.7367C44.614 21.3276 44.2856 22.1291 44.2856 22.9648C44.2856 23.8005 44.614 24.602 45.1987 25.1929C45.7834 25.7838 46.5764 26.1158 47.4032 26.1158H56.2262L43.7556 40.957L30.2873 32.859C29.6493 32.4755 28.897 32.3346 28.1655 32.4617C27.4339 32.5888 26.7713 32.9754 26.2967 33.5522L10.7083 52.4582C10.4458 52.7766 10.248 53.1443 10.1263 53.54C10.0046 53.9358 9.9613 54.352 9.99895 54.7647C10.0366 55.1774 10.1544 55.5785 10.3457 55.9451C10.537 56.3118 10.7979 56.6366 11.1136 56.9012C11.6745 57.3709 12.3805 57.6273 13.1089 57.6259C13.5669 57.6266 14.0195 57.5254 14.4344 57.3293C14.8493 57.1333 15.2164 56.8472 15.5095 56.4915L29.3831 39.6651L42.6956 47.7317C43.327 48.1102 44.0703 48.2514 44.7946 48.1304C45.5189 48.0093 46.1777 47.6338 46.655 47.07L59.8739 31.4725V38.7198C59.8739 39.5555 60.2024 40.357 60.787 40.9479C61.3717 41.5389 62.1647 41.8708 62.9916 41.8708C63.8184 41.8708 64.6114 41.5389 65.1961 40.9479C65.7808 40.357 66.1092 39.5555 66.1092 38.7198V22.9648Z" fill="#1A9AFB"/>
</svg>
